<svg width="40" height="40" viewBox="0 0 40 40" fill="none" xmlns="http://www.w3.org/2000/svg">
<g clip-path="url(#clip0_1_490)">
<path d="M21.4225 21.0416V28.3089H18.2106V21.0416V21.0172H18.1862H15.5612V18.0497H18.1862H18.2106V18.0253V15.7265C18.2106 14.4238 18.5986 13.4156 19.2804 12.7331C19.9622 12.0506 20.9408 11.691 22.1276 11.691C22.6971 11.691 23.28 11.7419 23.7207 11.7927C23.941 11.8182 24.1257 11.8436 24.2553 11.8627C24.3201 11.8722 24.3711 11.8802 24.4058 11.8857L24.4388 11.8911V14.414H23.1475C22.4941 14.414 22.0615 14.617 21.7927 14.9278C21.5244 15.2379 21.4225 15.6518 21.4225 16.068V18.0253V18.0497H21.447H24.3127L23.8573 21.0172H21.447H21.4225V21.0416Z" fill="#697687" stroke="#697687" stroke-width="0.0488281"/>
</g>
<rect x="0.5" y="0.5" width="39" height="39" rx="19.5" stroke="#697687"/>
<defs>
<clipPath id="clip0_1_490">
<rect width="16.6667" height="16.6667" fill="white" transform="translate(11.6667 11.6666)"/>
</clipPath>
</defs>
</svg>
