<svg width="40" height="40" viewBox="0 0 40 40" fill="none" xmlns="http://www.w3.org/2000/svg">
<path d="M17.5713 21.1889L17.5631 21.1711C17.5555 21.1542 17.5446 21.1293 17.5317 21.097C17.5058 21.0323 17.4713 20.9377 17.4368 20.8177C17.368 20.5775 17.2991 20.2352 17.2991 19.8259C17.2991 18.544 18.0434 17.5763 18.9832 17.5763C19.3817 17.5763 19.679 17.7261 19.8762 17.9669C20.0729 18.2071 20.1682 18.5355 20.1682 18.8907C20.1682 19.2884 20.0423 19.7823 19.8853 20.3106C19.8414 20.4584 19.795 20.6089 19.7482 20.7609C19.6271 21.1539 19.5029 21.557 19.4098 21.9495L19.4098 21.9495C19.1958 22.8454 19.8583 23.5753 20.7426 23.5753C21.5481 23.5753 22.262 23.1509 22.7754 22.4163C23.2889 21.6816 23.6012 20.637 23.6012 19.4008C23.6012 18.3091 23.2089 17.3832 22.5381 16.7302C21.8672 16.0772 20.9162 15.6957 19.7963 15.6957C17.2013 15.6957 15.681 17.639 15.681 19.6485C15.681 20.4307 15.9825 21.2678 16.3519 21.7251C16.3519 21.7251 16.3519 21.7251 16.3519 21.7252L16.333 21.7405C16.4069 21.8292 16.418 21.9106 16.3958 22.003C16.3648 22.1303 16.3172 22.3233 16.2711 22.51C16.2129 22.7458 16.1573 22.9714 16.1408 23.0416L17.5713 21.1889ZM17.5713 21.1889L17.5707 21.1915L17.5631 21.2237L17.5341 21.3467L17.4292 21.7912L17.0997 23.1885C16.8526 24.2372 16.5846 25.3757 16.5014 25.7343C16.3189 26.5153 16.3874 27.609 16.4634 28.3341C13.0842 26.9937 10.691 23.6934 10.691 19.8333C10.691 14.7829 14.7829 10.691 19.8333 10.691C24.8837 10.691 28.9755 14.7829 28.9755 19.8333C28.9755 24.8836 24.8837 28.9755 19.8333 28.9755C18.9006 28.9755 18.0039 28.8351 17.1575 28.5756C17.5306 27.9635 18.0773 26.9802 18.2823 26.1933L18.2823 26.1932C18.3378 25.9789 18.4801 25.4337 18.6085 24.9421L18.7782 24.2929L18.8316 24.0886L18.8362 24.0711M17.5713 21.1889L18.8362 24.0711M18.8362 24.0711C18.996 24.3406 19.2795 24.5864 19.6308 24.7682C20.0055 24.9621 20.4594 25.0842 20.9274 25.0842C23.71 25.0842 25.7088 22.5254 25.7088 19.3565C25.7088 16.3141 23.2234 14.039 20.0329 14.039C18.0497 14.039 16.5287 14.7046 15.5034 15.7349C14.4783 16.7651 13.9503 18.1585 13.9503 19.6115C13.9503 20.2882 14.1306 21.0468 14.4542 21.7033C14.7776 22.3594 15.2458 22.9164 15.8237 23.1857C15.8236 23.1857 15.8236 23.1857 15.8236 23.1857L15.834 23.1636L18.8362 24.0711Z" fill="#697687" stroke="#697687" stroke-width="0.0488281"/>
<rect x="0.5" y="0.5" width="39" height="39" rx="19.5" stroke="#697687"/>
</svg>
